<svg width="332" height="186" viewBox="0 0 332 186" fill="none" xmlns="http://www.w3.org/2000/svg">
<rect x="83.2773" y="29.1455" width="41.1795" height="9.68929" transform="rotate(33.2306 83.2773 29.1455)" fill="#EF4028"/>
<rect x="42.8516" y="112.221" width="53.2911" height="9.68929" transform="rotate(33.2306 42.8516 112.221)" fill="#EF4028"/>
<rect x="110.879" y="105.628" width="52.4836" height="9.68929" transform="rotate(123.231 110.879 105.628)" fill="#EF4028"/>
<rect x="74.582" y="117.563" width="36.7386" height="9.68929" transform="rotate(123.231 74.582 117.563)" fill="#EF4028"/>
<rect x="125.023" y="40.5684" width="16.9563" height="9.68929" transform="rotate(123.231 125.023 40.5684)" fill="#EF4028"/>
<rect x="88.9492" y="38.1689" width="51.6762" height="9.68929" transform="rotate(123.231 88.9492 38.1689)" fill="#EF4028"/>
<rect x="56.5078" y="70.0068" width="56.9246" height="9.68929" transform="rotate(33.2306 56.5078 70.0068)" fill="#EF4028"/>
<path d="M30.4022 109.856L47.856 110.841L38.2759 125.464L30.4022 109.856Z" fill="#EF4028"/>
<path d="M77.3878 104.441L76.4026 121.895L61.7798 112.315L77.3878 104.441Z" fill="#EF4028"/>
<path d="M120.924 146.18C118.308 146.18 116.244 145.844 114.732 145.172C113.22 144.476 112.14 143.432 111.492 142.04C110.844 140.648 110.52 138.896 110.52 136.784V120.26H116.28V136.784C116.28 138.608 116.7 139.856 117.54 140.528C118.404 141.176 119.856 141.5 121.896 141.5H128.844C130.884 141.5 132.324 141.176 133.164 140.528C134.028 139.856 134.46 138.608 134.46 136.784V120.26H140.22V136.784C140.22 138.896 139.896 140.648 139.248 142.04C138.6 143.432 137.52 144.476 136.008 145.172C134.496 145.844 132.432 146.18 129.816 146.18H120.924ZM145.254 146V120.26H151.086L169.302 138.764V120.26H175.062V146H169.23L151.014 127.46V146H145.254ZM180.094 146V120.26H185.926L204.142 138.764V120.26H209.902V146H204.07L185.854 127.46V146H180.094ZM214.934 146V120.26H243.158V124.94H220.694V130.628H241.07V135.308H220.694V141.32H243.158V146H214.934ZM244.942 146L254.59 133.148L244.942 120.26H251.962L259.702 130.808H263.014L270.754 120.26H277.774L268.126 133.148L277.774 146H270.718L263.014 135.488H259.702L251.998 146H244.942Z" fill="black"/>
</svg>
