<svg width="291" height="162" viewBox="0 0 291 162" fill="none" xmlns="http://www.w3.org/2000/svg">
<g clip-path="url(#clip0_209_597)">
<path d="M94.3559 71.0995C88.4253 67.3218 82.4934 63.5462 76.5645 59.7659C70.1355 55.6667 63.7092 51.5632 57.2769 47.4585C54.5014 49.242 51.7468 51.0121 48.9651 52.7996C41.2944 47.9025 33.6324 43.0111 25.9062 38.0786C36.3578 31.4025 46.7255 24.7801 57.0826 18.0788C57.1705 18 57.269 18 57.4413 18C58.2029 18.5066 58.864 19.0551 59.5825 19.5135C71.134 26.8842 82.6927 34.2434 94.3084 41.7617C94.3633 51.6453 94.3596 61.3724 94.3559 71.0995Z" fill="white"/>
<path d="M20.0059 41.333C24.1192 43.9164 28.2485 46.4746 32.3428 49.0877C48.8636 59.6316 65.3751 70.1902 81.8865 80.7488C85.9837 83.3688 90.0676 86.0095 94.2529 88.7623C94.3544 89.9885 94.3672 91.0932 94.3655 92.1979C94.3518 101.146 94.3353 110.095 94.3196 119.043C91.2754 117.113 88.2204 115.199 85.1887 113.249C69.8264 103.367 54.4678 93.4796 39.1128 83.5865C32.7664 79.4976 26.4324 75.3893 20.0438 71.1283C19.9985 61.0888 20.0022 51.2109 20.0059 41.333Z" fill="white"/>
<path d="M20.04 88.8984C23.9629 91.435 27.8929 93.9615 31.8076 96.5107C39.894 101.776 47.9789 107.046 56.0449 112.343C56.2418 112.472 56.4206 112.567 56.5918 112.626L56.8438 112.79C56.8294 122.736 56.8146 132.683 56.7998 142.629C56.6857 142.593 56.563 142.534 56.4297 142.447C44.4417 134.601 32.4293 126.792 20.4229 118.974C20.2996 118.893 20.1832 118.801 20.0264 118.549C19.9931 117.169 20.0001 115.954 20.002 114.739C20.0151 106.126 20.0275 97.5119 20.04 88.8984Z" fill="white"/>
<path d="M115.727 122.277C112.821 122.277 110.527 121.904 108.847 121.157C107.167 120.384 105.967 119.224 105.247 117.677C104.527 116.13 104.167 114.184 104.167 111.837V93.4771H110.567V111.837C110.567 113.864 111.034 115.25 111.967 115.997C112.927 116.717 114.541 117.077 116.807 117.077H124.527C126.794 117.077 128.394 116.717 129.327 115.997C130.287 115.25 130.767 113.864 130.767 111.837V93.4771H137.167V111.837C137.167 114.184 136.807 116.13 136.087 117.677C135.367 119.224 134.167 120.384 132.487 121.157C130.807 121.904 128.514 122.277 125.607 122.277H115.727ZM142.761 122.077V93.4771H149.241L169.481 114.037V93.4771H175.881V122.077H169.401L149.161 101.477V122.077H142.761ZM181.472 122.077V93.4771H187.952L208.192 114.037V93.4771H214.592V122.077H208.112L187.872 101.477V122.077H181.472ZM220.183 122.077V93.4771H251.543V98.6771H226.583V104.997H249.223V110.197H226.583V116.877H251.543V122.077H220.183ZM253.525 122.077L264.245 107.797L253.525 93.4771H261.325L269.925 105.197H273.605L282.205 93.4771H290.005L279.285 107.797L290.005 122.077H282.165L273.605 110.397H269.925L261.365 122.077H253.525Z" fill="white"/>
</g>
<defs>
<clipPath id="clip0_209_597">
<rect width="291" height="162" fill="white"/>
</clipPath>
</defs>
</svg>
